<svg width="38" height="38" viewBox="0 0 38 38" fill="none" xmlns="http://www.w3.org/2000/svg">
<path d="M15.8333 23.7498L24.0508 18.9998L15.8333 14.2498V23.7498ZM34.1366 11.3523C34.3425 12.0965 34.485 13.094 34.58 14.3607C34.6908 15.6273 34.7383 16.7198 34.7383 17.6698L34.8333 18.9998C34.8333 22.4673 34.58 25.0165 34.1366 26.6473C33.7408 28.0723 32.8225 28.9907 31.3975 29.3865C30.6533 29.5923 29.2916 29.7348 27.2016 29.8298C25.1433 29.9407 23.2591 29.9882 21.5175 29.9882L19 30.0832C12.3658 30.0832 8.23329 29.8298 6.60246 29.3865C5.17746 28.9907 4.25913 28.0723 3.86329 26.6473C3.65746 25.9032 3.51496 24.9057 3.41996 23.639C3.30913 22.3723 3.26163 21.2798 3.26163 20.3298L3.16663 18.9998C3.16663 15.5323 3.41996 12.9832 3.86329 11.3523C4.25913 9.92734 5.17746 9.009 6.60246 8.61317C7.34663 8.40734 8.70829 8.26484 10.7983 8.16984C12.8566 8.059 14.7408 8.0115 16.4825 8.0115L19 7.9165C25.6341 7.9165 29.7666 8.16984 31.3975 8.61317C32.8225 9.009 33.7408 9.92734 34.1366 11.3523Z" fill="#545C66"/>
</svg>
